<?xml version="1.0" encoding="utf-8"?>
<!-- Generator: Adobe Illustrator 23.0.1, SVG Export Plug-In . SVG Version: 6.00 Build 0)  -->
<svg version="1.1" id="Layer_1" xmlns="http://www.w3.org/2000/svg" xmlns:xlink="http://www.w3.org/1999/xlink" x="0px" y="0px"
	 viewBox="0 0 794.8 205" style="enable-background:new 0 0 794.8 205;" xml:space="preserve">
<style type="text/css">
	.st0{fill:#222222;}
	.st1{fill:#7E57C2;}
</style>
<title>talaria_logo_hor</title>
<g>
	<g id="Typo">
		<path class="st0" d="M674.2,52c-4,0.1-7.9-1.4-10.9-4.2c-5.6-5-6.1-13.6-1.1-19.2c0.3-0.4,0.7-0.7,1.1-1.1
			c6.1-5.6,15.6-5.6,21.7,0c5.6,5.1,6,13.7,1,19.3c-0.3,0.3-0.6,0.7-1,1C682.1,50.5,678.2,52,674.2,52z"/>
		<path class="st0" d="M416.2,80.4c-2.3-4.3-5.6-8.1-9.7-10.8c-4.3-2.9-9-5-14-6.2c-5.4-1.4-10.9-2-16.5-2
			c-7.4-0.1-14.8,1.1-21.7,3.7c-5.9,2.2-11.1,5.9-15.3,10.6c-4,4.7-6.7,10.3-7.9,16.3l26.5,2.2c1-3.4,3.1-6.4,6-8.5
			c3-2.3,7.1-3.4,12.3-3.4c4.9,0,8.6,1.2,11.3,3.5c2.7,2.3,4,5.6,4,9.9V96c0.1,2-0.8,3.9-2.5,5c-1.6,1.1-4.3,2-8,2.5
			s-8.5,1.2-14.5,1.8c-4.9,0.5-9.8,1.3-14.6,2.6c-4.4,1.1-8.6,2.9-12.4,5.4c-3.6,2.4-6.6,5.6-8.6,9.4c-2.1,3.9-3.1,8.7-3.1,14.4
			c0,6.8,1.5,12.5,4.5,17c3,4.5,7.2,8.1,12.2,10.3c5.6,2.4,11.6,3.6,17.6,3.5c4.6,0.1,9.1-0.6,13.5-2.1c3.7-1.2,7.1-3.2,10-5.7
			c2.5-2.2,4.6-4.8,6.2-7.7v13.5h13.2c8.4,0,15.2-6.8,15.2-15.1c0,0,0,0,0,0V96.3C419.9,90.8,418.7,85.3,416.2,80.4z M388.6,138.7
			c-1.9,2.9-4.5,5.2-7.6,6.8c-3.5,1.7-7.3,2.6-11.1,2.5c-3.8,0.2-7.6-0.9-10.9-3.1c-2.8-2-4.5-5.4-4.3-8.9c-0.1-2.4,0.6-4.8,2.1-6.8
			c1.6-1.9,3.6-3.4,5.9-4.3c2.8-1.2,5.8-1.9,8.8-2.3c1.6-0.2,3.3-0.5,5.2-0.8s3.9-0.6,5.8-1s3.7-0.8,5.2-1.3
			c1.3-0.4,2.5-0.9,3.7-1.6V129C391.5,132.4,390.5,135.8,388.6,138.7L388.6,138.7z"/>
		<path class="st0" d="M566.3,80.4c-2.3-4.3-5.6-8.1-9.7-10.8c-4.3-2.9-9-5-14-6.2c-5.4-1.4-10.9-2-16.5-2
			c-7.4-0.1-14.8,1.1-21.7,3.7c-5.9,2.2-11.1,5.9-15.3,10.6c-4,4.7-6.7,10.3-7.9,16.3l26.5,2.2c1-3.4,3.1-6.4,6-8.5
			c3-2.3,7.1-3.4,12.3-3.4c4.9,0,8.7,1.2,11.3,3.5c2.7,2.3,4,5.6,4,9.9V96c0.1,2-0.8,3.9-2.5,5c-1.7,1.1-4.3,2-8,2.5
			c-3.7,0.6-8.5,1.2-14.5,1.8c-4.9,0.5-9.8,1.3-14.6,2.6c-4.4,1.1-8.6,2.9-12.4,5.4c-3.6,2.4-6.6,5.6-8.6,9.4
			c-2.1,3.9-3.2,8.7-3.2,14.4c0,6.8,1.5,12.5,4.5,17c3,4.5,7.2,8.1,12.2,10.3c5.6,2.4,11.6,3.6,17.6,3.5c4.6,0.1,9.1-0.6,13.5-2.1
			c3.7-1.2,7.1-3.2,10-5.7c2.5-2.2,4.6-4.8,6.2-7.7v13.5h13.2c8.4,0,15.2-6.8,15.2-15.1c0,0,0,0,0,0V96.3
			C570,90.8,568.8,85.3,566.3,80.4z M538.7,138.7c-1.9,2.9-4.5,5.3-7.6,6.8c-3.5,1.7-7.3,2.6-11.2,2.5c-3.8,0.2-7.6-0.9-10.8-3.1
			c-2.9-2-4.5-5.4-4.3-8.9c-0.1-2.4,0.7-4.8,2.1-6.8c1.5-1.9,3.6-3.4,5.9-4.3c2.8-1.2,5.8-1.9,8.8-2.3c1.6-0.2,3.3-0.5,5.2-0.8
			s3.8-0.6,5.8-1s3.7-0.8,5.2-1.3c1.3-0.4,2.5-0.9,3.7-1.6V129C541.5,132.4,540.5,135.8,538.7,138.7L538.7,138.7z"/>
		<path class="st0" d="M791.2,80.4c-2.3-4.3-5.6-8.1-9.7-10.8c-4.3-2.9-9-5-14-6.2c-5.4-1.4-10.9-2-16.5-2
			c-7.4-0.1-14.8,1.1-21.7,3.7c-5.9,2.2-11.1,5.9-15.3,10.6c-4,4.7-6.7,10.3-7.9,16.3l26.5,2.2c1-3.4,3.1-6.4,6-8.5
			c3-2.3,7.1-3.4,12.3-3.4c4.9,0,8.7,1.2,11.3,3.5c2.7,2.3,4,5.6,4,9.9V96c0.1,2-0.8,3.9-2.5,5c-1.7,1.1-4.3,2-8,2.5
			c-3.7,0.6-8.5,1.2-14.5,1.8c-4.9,0.5-9.8,1.3-14.6,2.6c-4.4,1.1-8.6,2.9-12.4,5.4c-3.6,2.4-6.6,5.6-8.6,9.4
			c-2.1,3.9-3.1,8.7-3.2,14.4c0,6.8,1.5,12.5,4.5,17c3,4.5,7.2,8.1,12.2,10.3c5.6,2.4,11.6,3.6,17.6,3.5c4.6,0.1,9.1-0.6,13.5-2.1
			c3.7-1.2,7.1-3.2,10-5.7c2.5-2.2,4.6-4.8,6.2-7.7v13.5h13.2c8.4,0,15.2-6.8,15.2-15.1c0,0,0,0,0,0V96.3
			C794.9,90.8,793.7,85.3,791.2,80.4z M763.6,138.7c-1.9,2.9-4.5,5.3-7.6,6.8c-3.5,1.7-7.3,2.6-11.2,2.5c-3.8,0.2-7.6-0.9-10.8-3.1
			c-2.9-2-4.5-5.4-4.3-8.9c-0.1-2.4,0.6-4.8,2.1-6.8c1.5-1.9,3.6-3.4,5.8-4.3c2.8-1.2,5.8-1.9,8.8-2.3c1.6-0.2,3.3-0.5,5.2-0.8
			s3.8-0.6,5.8-1s3.7-0.8,5.2-1.3c1.3-0.4,2.5-0.9,3.7-1.6V129C766.4,132.4,765.4,135.8,763.6,138.7z"/>
		<path class="st0" d="M453.6,24.6H465l0,0v129.9c0,6.3-5.1,11.3-11.3,11.3h-17.1l0,0V41.6C436.5,32.2,444.2,24.6,453.6,24.6
			C453.6,24.6,453.6,24.6,453.6,24.6z"/>
		<path class="st0" d="M643.1,61.5c-1.5-0.2-3.1-0.3-4.6-0.3c-5.5-0.1-10.9,1.7-15.3,4.9c-4,2.9-7.3,6.6-9.7,11V61.3h-13.2
			c-8.4,0-15.2,6.8-15.2,15.2v89.3h13.2c8.4,0,15.2-6.8,15.2-15.1c0,0,0,0,0,0v-43v-0.2c-0.1-3.9,0.9-7.8,2.8-11.1
			c1.9-3.2,4.6-5.8,7.8-7.6c3.5-1.9,7.3-2.8,11.2-2.7c2.2,0,4.4,0.2,6.5,0.5c1.9,0.2,3.8,0.6,5.6,1.1V62.2
			C646,61.9,644.6,61.6,643.1,61.5z"/>
		<path class="st0" d="M671.2,61.3h17.1l0,0v93.2c0,6.3-5.1,11.3-11.3,11.3h-17.1l0,0V72.7C659.9,66.4,665,61.4,671.2,61.3
			C671.2,61.3,671.2,61.3,671.2,61.3z"/>
		<path class="st0" d="M309.3,82.3c8.4,0,15.2-6.8,15.2-15.1c0,0,0,0,0,0v-5.7h-25.1V33.7h-4.6c-12.6,0-22.7,10.2-22.7,22.7v5h-2
			c-8.4,0-15.2,6.8-15.2,15.2c0,0,0,0,0,0v5.7H272V137c0,6.8,1.5,12.5,4.5,17c3,4.5,7.2,8.1,12.2,10.3c5.6,2.4,11.6,3.6,17.6,3.5
			c4.6,0.1,9.1-0.6,13.5-2c0.3-0.1,0.5-0.2,0.8-0.3l-4.5-17.5c-0.5,0-1.1,0.1-1.6,0.1c-3.8,0.2-7.6-0.9-10.9-3.1
			c-2.6-1.8-4.2-4.8-4.2-8l0,0V82.3H309.3z"/>
	</g>
	<path class="st1" d="M102.5,0C45.9,0,0,45.9,0,102.5S45.9,205,102.5,205S205,159.1,205,102.5S159.1,0,102.5,0L102.5,0z M36.8,49.3
		v-8.4h131.7c8.8,9.4,15.5,20.5,19.6,32.7h-127C47.6,73.6,36.8,62.7,36.8,49.3C36.8,49.3,36.8,49.3,36.8,49.3z M168.5,164.1H162
		c-13.4,0-24.3-10.9-24.3-24.3c0,0,0,0,0,0v-8.4h50.4C184,143.6,177.3,154.8,168.5,164.1L168.5,164.1z M114.9,118.9
		c-13.4,0-24.3-10.9-24.3-24.3v-8.4h100.8c2,10.8,2,21.9,0,32.7H114.9z"/>
</g>
</svg>
